<svg viewBox="0 0 348 348" fill="none" xmlns="http://www.w3.org/2000/svg"><path d="M5.079 5.776h336.913v337.67H5.08z" stroke-width="2" stroke="#000"/><path d="M26.405 310.609c0-8.376 6.966-15.165 15.56-15.165 4.126 0 8.084 1.597 11 4.44 2.919 2.845 4.559 6.703 4.559 10.725 0 8.376-6.966 15.165-15.56 15.165-8.593 0-15.56-6.79-15.56-15.165z" stroke="#000" stroke-width="2"/><path fill="#fff" stroke="#000" stroke-width="1.38" d="M28.864 64.675h133.084v133.084H28.864Z"/><path fill="#fff" stroke="#000" stroke-width="1.013" d="M37.022 71.705h118.331v118.331H37.022Z"/><path d="M120.334 125.776h-8.806l-2.432 9.943h8.144v3.57h-9.07l-2.75 11.132h-3.411l2.75-11.132h-7.14l-2.75 11.132h-3.41l2.75-11.132h-7.88v-3.57h8.805l2.433-9.943h-8.145v-3.57h9.07l2.777-11.158h3.41l-2.776 11.158h7.14l2.776-11.158h3.411l-2.776 11.158h7.88zm-12.137-.053h-7.246l-2.485 10.049h7.245z" transform="translate(-8)" aria-label="#" style="font-size:54.155px;line-height:1.25;letter-spacing:0;word-spacing:0;fill:#000;stroke-width:4.062"/><path fill="#fff" stroke="#000" stroke-width="1.322" d="M189.152 54.646h39.299v39.299h-39.299zm39.3 0h39.299v39.299h-39.299zm39.299 0h39.299v39.299h-39.299zm-78.599 39.299h39.299v39.299h-39.299zm39.3 0h39.299v39.299h-39.299zm39.299 0h39.299v39.299h-39.299zm-78.599 39.3h39.299v39.299h-39.299zm39.3 0h39.299v39.299h-39.299zm39.299 0h39.299v39.299h-39.299zm-78.599 39.299h39.299v39.299h-39.299zm39.3 0h39.299v39.299h-39.299zm39.299 0h39.299v39.299h-39.299z"/><path d="M215.31 83.854h-12.397v-2.338h4.768V66.168h-4.768v-2.092q.97 0 2.077-.154 1.107-.169 1.676-.476.708-.385 1.107-.97.416-.6.477-1.599h2.384v20.64h4.675z" aria-label="1" style="font-size:31.497px;line-height:1.25;letter-spacing:0;word-spacing:0;fill:#000;stroke-width:2.362"/><path d="M255.7 84.07h-15.503v-3.214l3.23-2.769q1.63-1.384 3.03-2.752 2.952-2.861 4.044-4.537 1.092-1.692 1.092-3.645 0-1.784-1.184-2.784-1.169-1.015-3.276-1.015-1.4 0-3.03.492t-3.183 1.507h-.154v-3.23q1.092-.538 2.907-.984 1.83-.446 3.537-.446 3.522 0 5.521 1.707 2 1.692 2 4.599 0 1.307-.339 2.445-.323 1.123-.969 2.138-.6.953-1.415 1.876-.8.923-1.953 2.046-1.645 1.615-3.399 3.137-1.753 1.507-3.275 2.8H255.7z" aria-label="2" style="font-size:31.497px;line-height:1.25;letter-spacing:0;word-spacing:0;fill:#000;stroke-width:2.362"/><path d="M293.869 73.165q.738.661 1.215 1.66.477 1 .477 2.585 0 1.568-.57 2.876-.569 1.307-1.599 2.276-1.153 1.076-2.722 1.6-1.553.507-3.414.507-1.907 0-3.753-.462-1.845-.446-3.03-.984V80.01h.231q1.307.861 3.076 1.43 1.769.57 3.414.57.969 0 2.061-.324 1.092-.323 1.769-.953.707-.677 1.045-1.492.354-.815.354-2.061 0-1.23-.4-2.03-.384-.815-1.076-1.277-.692-.476-1.677-.646-.984-.184-2.122-.184h-1.384v-2.553h1.076q2.338 0 3.722-.969 1.4-.984 1.4-2.86 0-.831-.354-1.446-.354-.63-.984-1.03-.662-.4-1.415-.554-.754-.154-1.707-.154-1.461 0-3.107.523-1.645.523-3.107 1.476h-.153v-3.214q1.092-.538 2.906-.984 1.83-.462 3.538-.462 1.676 0 2.952.308 1.277.307 2.307.984 1.108.738 1.677 1.784t.569 2.446q0 1.907-1.354 3.337-1.338 1.415-3.168 1.784v.215q.738.123 1.692.523.953.385 1.615.969z" aria-label="3" style="font-size:31.497px;line-height:1.25;letter-spacing:0;word-spacing:0;fill:#000;stroke-width:2.362"/><path d="M216.308 118.296h-3.398v6.444h-2.953v-6.444H198.99v-3.537l11.089-12.919h2.83v13.995h3.398zm-6.351-2.46V105.5l-8.874 10.335z" aria-label="4" style="font-size:31.497px;line-height:1.25;letter-spacing:0;word-spacing:0;fill:#000;stroke-width:2.362"/><path d="M295.39 117.65q0 3.49-2.306 5.706-2.292 2.199-5.629 2.199-1.692 0-3.076-.523-1.384-.523-2.445-1.553-1.323-1.277-2.046-3.384-.707-2.107-.707-5.075 0-3.045.646-5.398.661-2.353 2.092-4.183 1.353-1.738 3.49-2.707 2.138-.985 4.984-.985.907 0 1.522.077t1.246.277v2.938h-.154q-.43-.231-1.307-.431-.861-.215-1.769-.215-3.306 0-5.275 2.076-1.969 2.06-2.291 5.583 1.291-.785 2.537-1.185 1.261-.415 2.907-.415 1.46 0 2.568.277 1.123.261 2.292 1.077 1.353.938 2.03 2.368.692 1.43.692 3.476zm-3.121.123q0-1.43-.43-2.369-.416-.938-1.385-1.63-.707-.492-1.569-.646-.86-.154-1.799-.154-1.307 0-2.43.308-1.123.308-2.307.954-.03.338-.046.66-.015.308-.015.785 0 2.43.492 3.845.507 1.4 1.384 2.215.707.676 1.522 1 .831.307 1.8.307 2.23 0 3.506-1.353 1.277-1.37 1.277-3.922z" aria-label="6" style="font-size:31.497px;line-height:1.25;letter-spacing:0;word-spacing:0;fill:#000;stroke-width:2.362"/><path d="M255.869 117.808q0 1.599-.584 3.06-.585 1.461-1.6 2.46-1.107 1.077-2.645 1.662-1.523.569-3.537.569-1.877 0-3.615-.4-1.737-.385-2.937-.938v-3.245h.215q1.261.8 2.953 1.368 1.692.554 3.322.554 1.092 0 2.107-.307 1.03-.308 1.83-1.077.677-.661 1.015-1.584.354-.923.354-2.138 0-1.184-.415-2-.4-.814-1.123-1.306-.8-.585-1.953-.816-1.138-.246-2.553-.246-1.354 0-2.615.185-1.245.185-2.153.37v-11.797h13.78v2.691h-10.812v6.09q.662-.06 1.354-.092.692-.03 1.2-.03 1.86 0 3.26.323 1.4.307 2.568 1.107 1.23.846 1.907 2.184t.677 3.352z" aria-label="5" style="font-size:31.497px;line-height:1.25;letter-spacing:0;word-spacing:0;fill:#000;stroke-width:2.362"/><path d="m215.726 143.805-10.366 19.47h-3.29l11.026-20.209h-13.042v-2.69h15.672z" aria-label="7" style="font-size:31.497px;line-height:1.25;letter-spacing:0;word-spacing:0;fill:#000;stroke-width:2.362"/><path d="M294.9 150.787q0 2.999-.691 5.444-.677 2.445-2.061 4.168-1.4 1.753-3.507 2.706-2.107.954-4.952.954-.8 0-1.507-.092-.707-.077-1.261-.262v-2.937h.154q.446.23 1.26.446.816.2 1.816.2 3.398 0 5.32-2.03 1.939-2.046 2.246-5.63-1.43.862-2.691 1.231-1.261.37-2.753.37-1.415 0-2.568-.278-1.139-.276-2.292-1.076-1.353-.938-2.045-2.384-.677-1.446-.677-3.46 0-3.507 2.307-5.706 2.307-2.2 5.629-2.2 1.66 0 3.076.524 1.414.507 2.476 1.538 1.307 1.276 2.014 3.29.708 2 .708 5.184zm-3.106-.662q0-2.384-.492-3.83-.492-1.445-1.353-2.245-.723-.692-1.554-.984-.83-.307-1.8-.307-2.214 0-3.506 1.384-1.276 1.384-1.276 3.89 0 1.462.415 2.384.415.923 1.4 1.615.692.477 1.522.646.83.154 1.846.154 1.2 0 2.43-.323 1.23-.323 2.307-.938l.03-.63q.031-.324.031-.816z" aria-label="9" style="font-size:31.497px;line-height:1.25;letter-spacing:0;word-spacing:0;fill:#000;stroke-width:2.362"/><path d="M256.1 157.236q0 2.968-2.322 4.936-2.307 1.969-5.813 1.969-3.722 0-5.936-1.923-2.2-1.922-2.2-4.92 0-1.908 1.108-3.446 1.107-1.553 3.122-2.46v-.093q-1.846-.984-2.738-2.153-.877-1.169-.877-2.922 0-2.584 2.123-4.306 2.122-1.723 5.398-1.723 3.43 0 5.475 1.646 2.046 1.645 2.046 4.183 0 1.553-.97 3.06-.968 1.492-2.845 2.338v.092q2.154.923 3.292 2.277 1.138 1.353 1.138 3.445zm-3.644-11.181q0-1.646-1.277-2.615-1.26-.984-3.23-.984-1.937 0-3.183.923-1.23.922-1.23 2.491 0 1.107.615 1.923.63.8 1.892 1.43.569.277 1.63.723 1.076.446 2.091.738 1.523-1.015 2.107-2.107.585-1.092.585-2.522zm.477 11.473q0-1.415-.631-2.261-.615-.861-2.43-1.723-.723-.338-1.584-.63-.861-.292-2.292-.815-1.384.753-2.23 2.045-.83 1.292-.83 2.922 0 2.077 1.43 3.43 1.43 1.353 3.63 1.353 2.245 0 3.583-1.153 1.354-1.154 1.354-3.168z" aria-label="8" style="font-size:31.497px;line-height:1.25;letter-spacing:0;word-spacing:0;fill:#000;stroke-width:2.362"/><path d="M219.126 202.7h-3.952l-7.66-9.105h-4.29v9.105h-3.045v-22.9h6.413q2.076 0 3.46.277 1.385.261 2.492.953 1.246.785 1.938 1.984.707 1.185.707 3.015 0 2.476-1.246 4.152-1.245 1.661-3.43 2.507zm-7.12-16.456q0-.984-.354-1.738-.338-.769-1.138-1.292-.661-.446-1.569-.615-.907-.184-2.138-.184h-3.583v8.643h3.076q1.446 0 2.522-.246 1.077-.262 1.83-.954.692-.646 1.015-1.476.339-.846.339-2.138z" aria-label="R" style="font-size:31.497px;line-height:1.25;letter-spacing:0;word-spacing:0;fill:#000;stroke-width:2.362"/><path d="M296.087 196.502q0 1.338-.63 2.645-.615 1.307-1.738 2.215-1.23.984-2.876 1.538-1.63.553-3.937.553-2.476 0-4.46-.461-1.969-.462-4.014-1.369v-3.814h.215q1.738 1.446 4.014 2.23 2.276.784 4.276.784 2.83 0 4.398-1.06 1.584-1.062 1.584-2.83 0-1.523-.753-2.246-.739-.723-2.261-1.123-1.154-.307-2.507-.507-1.338-.2-2.845-.508-3.045-.646-4.522-2.199-1.46-1.569-1.46-4.076 0-2.875 2.43-4.706 2.43-1.845 6.166-1.845 2.415 0 4.43.461 2.014.462 3.568 1.138v3.6h-.216q-1.307-1.108-3.445-1.831-2.122-.738-4.352-.738-2.445 0-3.937 1.015-1.477 1.015-1.477 2.614 0 1.43.739 2.246.738.815 2.599 1.245.984.216 2.799.523 1.815.308 3.076.63 2.553.678 3.845 2.046 1.291 1.369 1.291 3.83z" aria-label="S" style="font-size:31.497px;line-height:1.25;letter-spacing:0;word-spacing:0;fill:#000;stroke-width:2.362"/><path d="M255.319 191.584q0 6.168-1.938 9.059-1.922 2.876-5.983 2.876-4.121 0-6.028-2.922-1.892-2.922-1.892-8.982 0-6.106 1.922-9.012 1.923-2.922 5.998-2.922 4.122 0 6.014 2.968 1.907 2.953 1.907 8.935zm-4.045 6.983q.538-1.246.723-2.922.2-1.692.2-4.06 0-2.338-.2-4.06-.185-1.723-.738-2.923-.539-1.184-1.477-1.784-.923-.6-2.384-.6-1.445 0-2.399.6-.938.6-1.492 1.815-.523 1.138-.722 2.968-.185 1.83-.185 4.014 0 2.4.17 4.014.168 1.615.722 2.891.508 1.2 1.43 1.83.938.631 2.476.631 1.446 0 2.4-.6.953-.6 1.476-1.814z" aria-label="0" style="font-size:31.497px;line-height:1.25;letter-spacing:0;word-spacing:0;fill:#000;stroke-width:2.362"/><path fill="#fff" stroke="#000" d="M72.125 265.268h247.487v65.761H72.125z"/><g aria-label="8888" style="font-size:53.407px;line-height:1.25;font-family:Digital-7;-inkscape-font-specification:Digital-7;letter-spacing:0;word-spacing:0;fill:#000;stroke-width:4.006"><path d="m161.363 296.052 1.942 1.942-1.942 1.942H148.74l-1.942-1.942 1.942-1.942zm2.913 2.428.971.97v13.595q-.485 1.942-2.427 2.428l-1.457-3.884v-10.196zm-2.427 16.993h-14.566q-1.942-.486-2.427-2.428l3.884-1.456h11.652zm-16.993-3.399v-12.623l.97-.971 2.914 2.913v9.225zm15.536-27.674h-11.604l-3.884-1.457q.486-1.942 2.428-2.427h14.517zm-11.652.97v9.226l-2.913 2.913-.971-.971v-12.624zm12.623 9.226V284.4l1.457-3.884q1.942.485 2.427 2.427v13.595l-.97.97zM186.61 296.052l1.942 1.942-1.942 1.942h-12.623l-1.942-1.942 1.942-1.942zm2.913 2.428.971.97v13.595q-.485 1.942-2.427 2.428l-1.457-3.884v-10.196zm-2.427 16.993H172.53q-1.942-.486-2.427-2.428l3.884-1.456h11.652zm-16.993-3.399v-12.623l.97-.971 2.914 2.913v9.225zm15.536-27.674h-11.604l-3.884-1.457q.486-1.942 2.428-2.427h14.517zm-11.652.97v9.226l-2.913 2.913-.971-.971v-12.624zm12.623 9.226V284.4l1.457-3.884q1.942.485 2.427 2.427v13.595l-.97.97zM211.857 296.052l1.942 1.942-1.942 1.942h-12.623l-1.943-1.942 1.943-1.942zm2.913 2.428.971.97v13.595q-.485 1.942-2.427 2.428l-1.457-3.884v-10.196zm-2.427 16.993h-14.566q-1.942-.486-2.428-2.428l3.885-1.456h11.652zm-16.994-3.399v-12.623l.971-.971 2.914 2.913v9.225zm15.537-27.674h-11.604l-3.884-1.457q.485-1.942 2.428-2.427h14.517zm-11.652.97v9.226l-2.914 2.913-.97-.971v-12.624zm12.623 9.226V284.4l1.457-3.884q1.942.485 2.427 2.427v13.595l-.97.97zM237.104 296.052l1.942 1.942-1.942 1.942H224.48l-1.942-1.942 1.942-1.942zm2.913 2.428.971.97v13.595q-.485 1.942-2.427 2.428l-1.457-3.884v-10.196zm-2.428 16.993h-14.565q-1.942-.486-2.428-2.428l3.884-1.456h11.653zm-16.993-3.399v-12.623l.971-.971 2.913 2.913v9.225zm15.537-27.674h-11.604l-3.884-1.457q.485-1.942 2.427-2.427h14.517zm-11.653.97v9.226l-2.913 2.913-.97-.971v-12.624zm12.624 9.226V284.4l1.457-3.884q1.942.485 2.427 2.427v13.595l-.97.97z"/></g><path style="fill:#000;stroke-width:18.8107" d="m103.549 154.32-11.48 19.952-11.52 19.908-11.478-19.94-11.529-19.912 23.006-.012Z" transform="matrix(1 0 0 .28724 14.598 130.062)"/><path style="fill:#000;stroke-width:18.8107" d="m103.549 154.32-11.48 19.952-11.52 19.908-11.478-19.94-11.529-19.912 23.006-.012Z" transform="matrix(-1 0 0 -.28724 175.689 130.435)"/><path style="fill:#000;stroke-width:18.8107" d="m103.549 154.32-11.48 19.952-11.52 19.908-11.478-19.94-11.529-19.912 23.006-.012Z" transform="matrix(0 -1 .28724 0 96.442 209.689)"/><path style="fill:#000;stroke-width:18.8107" d="m103.549 154.32-11.48 19.952-11.52 19.908-11.478-19.94-11.529-19.912 23.006-.012Z" transform="matrix(0 1 -.28724 0 95.415 48.598)"/></svg>